# xmcd
#
# Track frame offsets:
#	150
#	9018
#	16496
#	28739
#	42522
#	53488
#	69025
#	77212
#	84728
#	95308
#	105970
#	123903
#	140755
#	151187
#
# Disc length: 2143 seconds
#
# Revision: 1
# Processed by: cddbd v1.5.2PL0 Copyright (c) Steve Scherf et al.
# Submitted via: audiograbber 1.83.01
#
DISCID=9d085d0e
DTITLE=Dewey Brown - Traditional Fiddle
DYEAR=2006
DGENRE=Bluegrass
TTITLE0=Cotton-eyed Joe
TTITLE1=Katy Hill
TTITLE2=Maiden's Prayer
TTITLE3=Down Yonder
TTITLE4=Lost and I'll Never Find the Way
TTITLE5=Lonesome Moonlight Waltz
TTITLE6=Lost John
TTITLE7=Fire on the Mountain
TTITLE8=Wings of Angels
TTITLE9=Liverty
TTITLE10=Faded Love
TTITLE11=Sally Goodin
TTITLE12=Heaven's Light Is Shining On Me
TTITLE13=Orange Blossom Special
EXTD=
EXTT0=
EXTT1=
EXTT2=
EXTT3=
EXTT4=
EXTT5=
EXTT6=
EXTT7=
EXTT8=
EXTT9=
EXTT10=
EXTT11=
EXTT12=
EXTT13=
PLAYORDER=
